<svg width="20" height="20" viewBox="0 0 20 20" fill="none" xmlns="http://www.w3.org/2000/svg">
<g clip-path="url(#clip0_3_446)">
<path d="M13.5448 6.45511C12.6453 5.55564 11.3755 4.97363 9.99984 4.97363C8.62418 4.97363 7.35434 5.52919 6.45487 6.45511C5.5554 7.35459 4.97339 8.62443 4.97339 10.0001C4.97339 11.3757 5.5554 12.6456 6.45487 13.5451C7.35434 14.4445 8.62418 15.0265 9.99984 15.0265C11.3755 15.0265 12.6453 14.471 13.5448 13.5451C14.4443 12.6456 15.0263 11.3757 15.0263 10.0001C15.0263 8.62443 14.4707 7.35459 13.5448 6.45511Z" fill="#858BB2"/>
<path d="M10.0001 3.4127C10.3705 3.4127 10.6879 3.09524 10.6879 2.72487V0.68783C10.6879 0.31746 10.3705 0 10.0001 0C9.62972 0 9.31226 0.31746 9.31226 0.68783V2.72487C9.31226 3.09524 9.62972 3.4127 10.0001 3.4127Z" fill="#858BB2"/>
<path d="M15.6349 5.3441L17.09 3.88908C17.3545 3.62452 17.3545 3.20124 17.09 2.93669C16.8254 2.67214 16.4021 2.67214 16.1376 2.93669L14.6825 4.39172C14.418 4.65627 14.418 5.07955 14.6825 5.3441C14.9206 5.60865 15.3439 5.60865 15.6349 5.3441Z" fill="#858BB2"/>
<path d="M19.3123 9.3125H17.2752C16.9049 9.3125 16.5874 9.62996 16.5874 10.0003C16.5874 10.3707 16.9049 10.6882 17.2752 10.6882H19.3123C19.6826 10.6882 20.0001 10.3707 20.0001 10.0003C20.0001 9.62996 19.6826 9.3125 19.3123 9.3125Z" fill="#858BB2"/>
<path d="M15.6083 14.6564C15.3438 14.3919 14.9205 14.3919 14.6559 14.6564C14.3914 14.921 14.3914 15.3443 14.6559 15.6088L16.111 17.0638C16.3755 17.3284 16.7988 17.3284 17.0633 17.0638C17.3279 16.7993 17.3279 16.376 17.0633 16.1114L15.6083 14.6564Z" fill="#858BB2"/>
<path d="M10.0001 16.5869C9.62972 16.5869 9.31226 16.9044 9.31226 17.2747V19.3118C9.31226 19.6822 9.62972 19.9996 10.0001 19.9996C10.3705 19.9996 10.6879 19.6822 10.6879 19.3118V17.2747C10.6879 16.9044 10.3705 16.5869 10.0001 16.5869Z" fill="#858BB2"/>
<path d="M4.36511 14.6564L2.91008 16.1114C2.64553 16.376 2.64553 16.7993 2.91008 17.0638C3.17463 17.3284 3.59791 17.3284 3.86246 17.0638L5.31749 15.6088C5.58204 15.3443 5.58204 14.921 5.31749 14.6564C5.07939 14.3919 4.65611 14.3919 4.36511 14.6564Z" fill="#858BB2"/>
<path d="M3.4127 10.0003C3.4127 9.62996 3.09524 9.3125 2.72487 9.3125H0.68783C0.31746 9.3125 0 9.62996 0 10.0003C0 10.3707 0.31746 10.6882 0.68783 10.6882H2.72487C3.09524 10.6882 3.4127 10.3707 3.4127 10.0003Z" fill="#858BB2"/>
<path d="M4.36511 5.3441C4.62966 5.60865 5.05294 5.60865 5.31749 5.3441C5.58204 5.07955 5.58204 4.65627 5.31749 4.39172L3.86246 2.93669C3.59791 2.67214 3.17463 2.67214 2.91008 2.93669C2.64553 3.20124 2.64553 3.62452 2.91008 3.88908L4.36511 5.3441Z" fill="#858BB2"/>
</g>
<defs>
<clipPath id="clip0_3_446">
<rect width="20" height="20" fill="white"/>
</clipPath>
</defs>
</svg>
